<?xml version="1.0"?>
<svg width="2000" height="893.3" xmlns="http://www.w3.org/2000/svg" xmlns:svg="http://www.w3.org/2000/svg" enable-background="new 0 0 2000 893.3" version="1.1" xml:space="preserve">
 <style>.st0,.st1,.st2,.st3{fill-rule:evenodd;clip-rule:evenodd;fill:#fddb00}.st1,.st2,.st3{fill:#01d101}.st2,.st3{fill:#4e4e4e}.st3{fill:#193dff}.st4{fill:red}.st4,.st5{fill-rule:evenodd;clip-rule:evenodd}</style>
 <g class="layer">
  <title>Layer 1</title>
  <g id="g148" transform="matrix(.77438 0 0 .77438 -1791.426 -230.692)">
   <g id="g146" transform="translate(1982.62)">
    <path class="st0" d="m1475.7,551.9l377.3,629.5l-754.5,0l377.2,-629.5z" fill="#45556c" id="path2"/>
    <g id="g6" transform="matrix(1.08397 0 0 1 -324.434 0)">
     <path class="st1" d="m1046,551.9l377.3,629.5l-377.3,0l0,-629.5z" fill="#45556c" id="path4"/>
    </g>
    <g id="g10" transform="translate(-1982.62)">
     <path class="st2" d="m3138.6,1085.3l-57.5,96l119.9,0l-62.4,-96z" fill="#45556c" id="path8"/>
    </g>
    <g id="g14" transform="translate(31.164 57.068) scale(1.20387)">
     <path class="st3" d="m1199.9,742.2c105.8,0 191.7,85.9 191.7,191.7l-383.4,0c0,-105.8 85.9,-191.7 191.7,-191.7z" fill="#45556c" id="path12"/>
    </g>
    <g id="g18" transform="translate(-1982.62)">
     <path class="st3" d="m3039.4,551.9c104.1,0 188.6,84.5 188.6,188.6s-84.5,188.6 -188.6,188.6l-189.7,-36.9l-57.7,-340.3l247.4,0z" fill="#45556c" id="path16"/>
    </g>
    <g id="g22" transform="matrix(1.02029 0 0 .99172 -29.368 5.752)">
     <path class="st3" d="m2670.3,971.4l214,0l0,214l-214,0l0,-214z" fill="#45556c" id="rect20"/>
    </g>
    <g id="g26" transform="matrix(1.02029 0 0 .99172 -111.71 5.752)">
     <path class="st2" d="m2537.1,971.4l214,0l0,214l-214,0l0,-214z" fill="#45556c" id="rect24"/>
    </g>
    <g id="g30" transform="matrix(1.02029 0 0 1.94506 -111.71 -736.926)">
     <path class="st0" d="m2537.1,663.1l214,0l0,214l-214,0l0,-214z" fill="#45556c" id="rect28"/>
    </g>
    <g id="g34" transform="matrix(1.02029 0 0 2.93679 -208.116 -1346.21)">
     <path class="st1" d="m2381,646.7l214,0l0,214l-214,0l0,-214z" fill="#45556c" id="rect32"/>
    </g>
    <g id="g38" transform="translate(-1982.62)">
     <path class="st0" d="m3879.3,1142.3c-49.5,-36.5 -81.6,-95.2 -81.6,-161.4s32.1,-124.9 81.6,-161.4l0,-39l118.8,0c110.6,0 200.4,89.8 200.4,200.4s-89.8,200.4 -200.4,200.4l-118.8,0l0,-39z" fill="#45556c" id="path36"/>
    </g>
    <g id="g42" transform="translate(-1982.62)">
     <path class="st1" d="m3946.7,741.4l-7.7,39.1l0,44.8l-77.6,0c-75.4,0 -136.7,-61.3 -136.7,-136.7c0,-75.4 61.3,-136.7 136.7,-136.7l77.6,0l7.7,39.1l0,150.4z" fill="#45556c" id="path40"/>
    </g>
    <g id="g46" transform="matrix(1 0 0 1.00463 0 -2.516)">
     <path class="st3" d="m1956.4,551.8l227.6,0l0,227.6l-227.6,0l0,-227.6z" fill="#45556c" id="rect44"/>
    </g>
    <g id="g50" transform="matrix(.94166 0 0 1.56462 -17.443 -155.918)">
     <path class="st4" d="m1868.5,627.1l227.6,0l0,227.6l-227.6,0l0,-227.6z" fill="#45556c" id="rect48"/>
    </g>
    <g id="g54" transform="translate(-1982.62)">
     <path class="st4" d="m2603.4,804.1c104.1,0 188.6,84.5 188.6,188.6s-84.5,188.6 -188.6,188.6l-290,0l0,-377.2l290,0z" fill="#45556c" id="path52"/>
    </g>
    <g id="g58" transform="translate(-1982.62)">
     <path class="st3" d="m2583.4,551.9c69.6,0 126.1,56.5 126.1,126.1s-56.5,126.1 -126.1,126.1l-151.4,0l90.6,-252.2l60.8,0z" fill="#45556c" id="path56"/>
    </g>
    <g id="g88" transform="translate(-2658.59 -1693.18) scale(5.57805)">
     <path d="m584.4,366.8l0,4.6l5.8,0c-0.5,1.4 -2,2.5 -4.3,2.5c-3.3,0 -5.5,-2.4 -5.5,-5.6c0,-3.3 2.3,-5.8 5.4,-5.8c2,0 3.8,1 4.7,2.7l5,-3c-2,-3.3 -5.7,-5.4 -9.6,-5.4c-6.3,0 -11.3,5 -11.3,11.4c0,6.3 5,11.3 11.4,11.3c6,0 10.5,-4.4 10.5,-11.1l0,-1.7l-12.1,0.1z" fill="#45556c" id="path60"/>
     <path d="m616.4,379.6c6.3,0 11.3,-5 11.3,-11.3s-5,-11.3 -11.3,-11.3c-6.3,0 -11.4,5 -11.4,11.3s5,11.3 11.4,11.3zm0,-6c-2.9,0 -5.1,-2.3 -5.1,-5.3c0,-3.1 2.2,-5.3 5.1,-5.3c2.8,0 5,2.3 5,5.3s-2.2,5.3 -5,5.3z" fill="#45556c" id="path62"/>
     <path d="m649.4,357.5l-5.1,13.3l-5,-13.3l-6.3,0l8.4,21.6l5.8,0l8.5,-21.6l-6.3,0z" fill="#45556c" id="path64"/>
     <path d="m678.6,362.7l0,-5.3l-15.5,0l0,21.6l15.5,0l0,-5.3l-9.6,0l0,-3.2l6.4,0l0,-4.5l-6.4,0l0,-3.2l9.6,-0.1z" fill="#45556c" id="path66"/>
     <path d="m699.9,379.1l6.5,0l-4.8,-8.3c2.3,-1.2 3.8,-3.5 3.8,-6.3c0,-4 -3.2,-7 -7.5,-7l-10.5,0l0,21.6l5.8,0l0,-7.5l2.4,0l4.3,7.5zm-6.7,-16.5l4.1,0c1.4,0 2.2,1 2.2,2s-0.9,2 -2.2,2l-4.1,0l0,-4z" fill="#45556c" id="path68"/>
     <path d="m727.9,357.5l0,11.4l-8.7,-11.4l-4.9,0l0,21.6l5.8,0l0,-11.4l8.7,11.4l4.9,0l0,-21.6l-5.8,0z" fill="#45556c" id="path70"/>
     <path d="m753.3,379.6c6.3,0 11.3,-5 11.3,-11.3s-5,-11.3 -11.3,-11.3c-6.3,0 -11.4,5 -11.4,11.3s5,11.3 11.4,11.3zm0,-6c-2.9,0 -5.1,-2.3 -5.1,-5.3c0,-3.1 2.2,-5.3 5.1,-5.3c2.8,0 5,2.3 5,5.3s-2.2,5.3 -5,5.3z" fill="#45556c" id="path72"/>
     <path d="m802.5,362.6l0,-5.2l-15.5,0l0,21.6l5.9,0l0,-7.9l6.4,0l0,-4.9l-6.4,0l0,-3.7l9.6,0l0,0.1z" fill="#45556c" id="path74"/>
     <path d="m826.5,362.7l0,-5.3l-15.5,0l0,21.6l15.5,0l0,-5.3l-9.6,0l0,-3.2l6.4,0l0,-4.5l-6.4,0l0,-3.2l9.6,-0.1z" fill="#45556c" id="path76"/>
     <path d="m844.2,357.5l-8.8,0l0,21.6l8.8,0c6.6,0 11.5,-4.6 11.5,-10.8c0,-6.2 -4.9,-10.8 -11.5,-10.8zm-0.3,16l-2.6,0l0,-10.4l2.6,0c3.4,0 5.8,2 5.8,5.2c0,3.1 -2.4,5.2 -5.8,5.2z" fill="#45556c" id="path78"/>
     <path d="m879.5,362.7l0,-5.3l-15.5,0l0,21.6l15.5,0l0,-5.3l-9.6,0l0,-3.2l6.4,0l0,-4.5l-6.4,0l0,-3.2l9.6,-0.1z" fill="#45556c" id="path80"/>
     <path d="m900.8,379.1l6.5,0l-4.8,-8.3c2.3,-1.2 3.8,-3.5 3.8,-6.3c0,-4 -3.2,-7 -7.5,-7l-10.5,0l0,21.6l5.8,0l0,-7.5l2.4,0l4.3,7.5zm-6.7,-16.5l4.1,0c1.4,0 2.2,1 2.2,2s-0.9,2 -2.2,2l-4.1,0l0,-4z" fill="#45556c" id="path82"/>
     <path d="m931.2,379.1l6,0l-9.1,-21.6l-5.5,0l-9,21.6l6.1,0l1.5,-3.7l8.6,0l1.4,3.7zm-8,-8.9l2.2,-5.3l2.2,5.3l-4.4,0z" fill="#45556c" id="path84"/>
     <path d="m950.8,373.5l0,-16.1l-6.1,0l0,21.6l15.2,0l0,-5.6l-9.1,0l0,0.1z" fill="#45556c" id="path86"/>
    </g>
    <g id="g92" transform="translate(-1982.62)">
     <path class="st2" d="m3724.7,996.3l110.9,185.1l-110.9,0l0,-185.1z" fill="#45556c" id="path90"/>
    </g>
    <g id="g128" transform="translate(-1704.56 -761.458) scale(4.10943)">
     <path class="st5" d="m558.4,528.9c1.2,0 2.2,-0.2 3,-0.7c0.8,-0.5 1.4,-1.1 1.9,-1.8s0.8,-1.6 1,-2.6c0.2,-1 0.3,-2 0.3,-3l0,-11.5l3.6,0l0,11.5c0,1.5 -0.2,3 -0.5,4.4c-0.4,1.4 -0.9,2.6 -1.7,3.6s-1.8,1.8 -3,2.4c-1.2,0.6 -2.7,0.9 -4.5,0.9c-1.8,0 -3.3,-0.3 -4.6,-0.9c-1.2,-0.6 -2.2,-1.5 -3,-2.5c-0.8,-1 -1.3,-2.3 -1.7,-3.6c-0.3,-1.4 -0.5,-2.8 -0.5,-4.2l0,-11.5l3.6,0l0,11.5c0,1 0.1,2 0.3,3s0.5,1.8 1,2.6s1.1,1.4 1.9,1.8c0.8,0.4 1.7,0.6 2.9,0.6z" fill="#45556c" id="path94"/>
     <path class="st5" d="m583.3,516.1l0,15.9l-3.6,0l0,-22.6l2.8,0l12.9,16.3l0,-16.3l3.6,0l0,22.6l-3,0l-12.7,-15.9z" fill="#45556c" id="path96"/>
     <path class="st5" d="m610.9,509.4l3.6,0l0,22.6l-3.6,0l0,-22.6z" fill="#45556c" id="rect98"/>
     <path class="st5" d="m633,509.4l3.1,0l8.9,22.6l-3.8,0l-2.4,-6.1l-8.7,0l-2.4,6.1l-3.7,0l9,-22.6zm5.1,13.8l-3.6,-9.7l-3.8,9.7l7.4,0zm-1.6,-16.7c-0.5,0 -0.9,-0.1 -1.3,-0.2s-0.7,-0.3 -1,-0.5c-0.3,-0.2 -0.6,-0.3 -0.9,-0.5c-0.3,-0.1 -0.6,-0.2 -1,-0.2s-0.6,0.1 -0.8,0.2s-0.4,0.3 -0.5,0.5c-0.1,0.2 -0.2,0.4 -0.2,0.5l0,0.3l-2,0c0,-0.2 0.1,-0.5 0.2,-0.9s0.3,-0.8 0.6,-1.2c0.3,-0.4 0.6,-0.8 1,-1.1c0.4,-0.3 1,-0.5 1.6,-0.5c0.5,0 0.9,0.1 1.2,0.2c0.4,0.1 0.7,0.3 1,0.5s0.6,0.3 0.9,0.5c0.3,0.1 0.7,0.2 1,0.2c0.4,0 0.7,-0.1 0.9,-0.2c0.2,-0.1 0.4,-0.3 0.5,-0.5c0.1,-0.2 0.2,-0.4 0.2,-0.5l0,-0.3l2,0c0,0.1 -0.1,0.4 -0.2,0.8s-0.3,0.8 -0.6,1.2c-0.3,0.4 -0.6,0.8 -1.1,1.1c-0.2,0.4 -0.8,0.6 -1.5,0.6z" fill="#45556c" id="path100"/>
     <path class="st5" d="m663.1,532.1c-1.6,0 -3.1,-0.3 -4.4,-1c-1.3,-0.6 -2.5,-1.5 -3.4,-2.6c-1,-1.1 -1.7,-2.3 -2.2,-3.7c-0.5,-1.4 -0.8,-2.8 -0.8,-4.2c0,-1.5 0.3,-2.9 0.8,-4.3c0.6,-1.4 1.3,-2.6 2.3,-3.7c1,-1.1 2.1,-1.9 3.4,-2.5c1.3,-0.6 2.8,-0.9 4.3,-0.9c1.6,0 3.1,0.3 4.4,1c1.3,0.7 2.5,1.5 3.4,2.6c0.9,1.1 1.7,2.3 2.2,3.7c0.5,1.4 0.8,2.8 0.8,4.2c0,1.5 -0.3,2.9 -0.8,4.3s-1.3,2.6 -2.3,3.6s-2.1,1.9 -3.5,2.5c-1.2,0.7 -2.6,1 -4.2,1zm-7.2,-11.4c0,1.1 0.2,2.1 0.5,3.1s0.8,1.9 1.4,2.6c0.6,0.8 1.4,1.4 2.3,1.8c0.9,0.5 1.9,0.7 3,0.7s2.2,-0.2 3,-0.7s1.6,-1.1 2.2,-1.9s1.1,-1.7 1.4,-2.6c0.3,-1 0.5,-2 0.5,-3c0,-1.1 -0.2,-2.1 -0.5,-3.1s-0.8,-1.9 -1.4,-2.6s-1.4,-1.4 -2.3,-1.8s-1.9,-0.7 -2.9,-0.7c-1.1,0 -2.2,0.2 -3.1,0.7s-1.6,1.1 -2.3,1.9s-1.1,1.6 -1.4,2.6c-0.2,1 -0.4,2 -0.4,3z" fill="#45556c" id="path102"/>
     <path class="st5" d="m714.6,528.8l0,3.1l-15.5,0l0,-22.6l15.2,0l0,3.1l-11.6,0l0,6.4l10.1,0l0,3l-10.1,0l0,6.9l11.9,0l0,0.1z" fill="#45556c" id="path104"/>
     <path class="st5" d="m739.7,532l0,-22.6l9.8,0c1,0 2,0.2 2.8,0.6c0.9,0.4 1.6,1 2.2,1.7c0.6,0.7 1.1,1.5 1.4,2.4s0.5,1.8 0.5,2.7c0,0.8 -0.1,1.5 -0.3,2.2s-0.5,1.3 -0.9,1.9c-0.4,0.6 -0.8,1.1 -1.4,1.5c-0.6,0.4 -1.2,0.8 -1.8,1l5.3,8.6l-4,0l-4.9,-7.9l-5.2,0l0,7.9l-3.5,0zm3.5,-11l6.2,0c0.5,0 1,-0.1 1.4,-0.3c0.4,-0.2 0.8,-0.5 1.1,-0.9s0.5,-0.8 0.7,-1.4c0.2,-0.5 0.3,-1 0.3,-1.6c0,-0.6 -0.1,-1.1 -0.3,-1.6s-0.5,-1 -0.8,-1.3c-0.3,-0.4 -0.7,-0.7 -1.1,-0.9c-0.4,-0.2 -0.9,-0.3 -1.4,-0.3l-6,0l-0.1,8.3z" fill="#45556c" id="path106"/>
     <path class="st5" d="m783,528.8l0,3.1l-15.5,0l0,-22.6l15.2,0l0,3.1l-11.7,0l0,6.4l10.1,0l0,3l-10.1,0l0,6.9l12,0l0,0.1z" fill="#45556c" id="path108"/>
     <path class="st5" d="m791.5,520.5c0,-1.4 0.2,-2.7 0.7,-4.1c0.5,-1.3 1.2,-2.6 2.1,-3.6c0.9,-1.1 2.1,-1.9 3.5,-2.6c1.4,-0.7 2.9,-1 4.6,-1c2.1,0 3.8,0.5 5.3,1.4c1.5,0.9 2.6,2.1 3.3,3.6l-2.8,1.9c-0.3,-0.7 -0.7,-1.3 -1.1,-1.7c-0.4,-0.5 -0.9,-0.8 -1.5,-1.1c-0.5,-0.3 -1.1,-0.5 -1.7,-0.6c-0.6,-0.1 -1.1,-0.2 -1.7,-0.2c-1.2,0 -2.2,0.2 -3.1,0.7s-1.6,1.1 -2.2,1.9c-0.6,0.8 -1.1,1.7 -1.4,2.6c-0.3,1 -0.5,2 -0.5,2.9c0,1.1 0.2,2.2 0.5,3.1c0.4,1 0.9,1.9 1.5,2.6c0.6,0.8 1.4,1.4 2.3,1.8s1.9,0.7 2.9,0.7c0.6,0 1.1,-0.1 1.7,-0.2c0.6,-0.1 1.1,-0.4 1.7,-0.7c0.5,-0.3 1,-0.7 1.5,-1.2s0.8,-1 1.1,-1.7l3,1.7c-0.4,0.8 -0.9,1.6 -1.5,2.2c-0.7,0.6 -1.4,1.2 -2.2,1.6s-1.7,0.8 -2.6,1c-0.9,0.2 -1.8,0.3 -2.7,0.3c-1.6,0 -3,-0.3 -4.4,-1c-1.3,-0.7 -2.4,-1.6 -3.4,-2.7s-1.7,-2.3 -2.2,-3.7c-0.4,-1 -0.7,-2.4 -0.7,-3.9z" fill="#45556c" id="path110"/>
     <path class="st5" d="m830.7,532.1c-1.6,0 -3.1,-0.3 -4.4,-1c-1.3,-0.6 -2.5,-1.5 -3.4,-2.6c-1,-1.1 -1.7,-2.3 -2.2,-3.7c-0.5,-1.4 -0.8,-2.8 -0.8,-4.2c0,-1.5 0.3,-2.9 0.8,-4.3c0.6,-1.4 1.3,-2.6 2.3,-3.7c1,-1.1 2.1,-1.9 3.4,-2.5c1.3,-0.6 2.8,-0.9 4.3,-0.9c1.6,0 3.1,0.3 4.4,1c1.3,0.7 2.5,1.5 3.4,2.6s1.7,2.3 2.2,3.7s0.8,2.8 0.8,4.2c0,1.5 -0.3,2.9 -0.8,4.3s-1.3,2.6 -2.3,3.6s-2.1,1.9 -3.5,2.5c-1.2,0.7 -2.7,1 -4.2,1zm-7.2,-11.4c0,1.1 0.2,2.1 0.5,3.1s0.8,1.9 1.4,2.6c0.6,0.8 1.4,1.4 2.3,1.8c0.9,0.5 1.9,0.7 3,0.7s2.2,-0.2 3,-0.7s1.6,-1.1 2.2,-1.9s1.1,-1.7 1.4,-2.6c0.3,-1 0.5,-2 0.5,-3c0,-1.1 -0.2,-2.1 -0.5,-3.1s-0.8,-1.9 -1.4,-2.6s-1.4,-1.4 -2.3,-1.8s-1.9,-0.7 -2.9,-0.7c-1.1,0 -2.2,0.2 -3.1,0.7s-1.6,1.1 -2.3,1.9s-1.1,1.6 -1.4,2.6c-0.3,1 -0.4,2 -0.4,3z" fill="#45556c" id="path112"/>
     <path class="st5" d="m855.5,516.1l0,15.9l-3.5,0l0,-22.6l2.8,0l12.9,16.3l0,-16.3l3.6,0l0,22.6l-3,0l-12.8,-15.9z" fill="#45556c" id="path114"/>
     <path class="st5" d="m896.5,514.7c-0.2,-0.2 -0.5,-0.5 -0.9,-0.7c-0.4,-0.3 -0.9,-0.5 -1.4,-0.7c-0.5,-0.2 -1.1,-0.4 -1.8,-0.6c-0.6,-0.1 -1.3,-0.2 -2,-0.2c-1.5,0 -2.6,0.3 -3.3,0.8s-1.1,1.3 -1.1,2.3c0,0.6 0.1,1 0.3,1.4c0.2,0.3 0.6,0.7 1,0.9c0.5,0.3 1,0.5 1.7,0.7c0.7,0.2 1.5,0.4 2.4,0.7c1.1,0.3 2.2,0.6 3.1,0.9c0.9,0.3 1.7,0.8 2.3,1.2c0.6,0.5 1.1,1.1 1.5,1.8c0.4,0.7 0.5,1.6 0.5,2.6c0,1.1 -0.2,2.1 -0.7,3s-1,1.5 -1.8,2s-1.6,0.9 -2.6,1.1c-1,0.2 -2.1,0.4 -3.2,0.4c-1.7,0 -3.4,-0.3 -5,-0.8s-3,-1.3 -4.3,-2.3l1.6,-3.1c0.3,0.3 0.7,0.6 1.2,0.9c0.5,0.3 1.1,0.7 1.8,0.9c0.7,0.3 1.4,0.5 2.2,0.7c0.8,0.2 1.6,0.3 2.5,0.3c1.4,0 2.5,-0.2 3.2,-0.7c0.8,-0.5 1.1,-1.2 1.1,-2.2c0,-0.6 -0.1,-1 -0.4,-1.4c-0.3,-0.4 -0.7,-0.7 -1.2,-1c-0.5,-0.3 -1.2,-0.5 -1.9,-0.8c-0.8,-0.2 -1.6,-0.5 -2.6,-0.7c-1.1,-0.3 -2.1,-0.6 -2.9,-0.9c-0.8,-0.3 -1.5,-0.7 -2.1,-1.2s-1,-1 -1.3,-1.6c-0.3,-0.6 -0.4,-1.4 -0.4,-2.3c0,-1.1 0.2,-2.1 0.6,-2.9c0.4,-0.9 1,-1.6 1.7,-2.2s1.6,-1 2.6,-1.3c1,-0.3 2.1,-0.4 3.2,-0.4c1.5,0 2.9,0.2 4.2,0.7c1.3,0.5 2.4,1.1 3.4,1.8l-1.2,2.9z" fill="#45556c" id="path116"/>
     <path class="st5" d="m925.8,512.5l-7.5,0l0,19.5l-3.6,0l0,-19.4l-7.5,0l0,-3.1l18.6,0l0,3z" fill="#45556c" id="path118"/>
     <path class="st5" d="m935.6,532l0,-22.6l9.8,0c1,0 2,0.2 2.8,0.6c0.9,0.4 1.6,1 2.2,1.7c0.6,0.7 1.1,1.5 1.4,2.4s0.5,1.8 0.5,2.7c0,0.8 -0.1,1.5 -0.3,2.2s-0.5,1.3 -0.9,1.9c-0.4,0.6 -0.8,1.1 -1.4,1.5c-0.6,0.4 -1.2,0.8 -1.8,1l5.3,8.6l-4,0l-4.9,-7.9l-5.2,0l0,7.9l-3.5,0zm3.6,-11l6.2,0c0.5,0 1,-0.1 1.4,-0.3c0.4,-0.2 0.8,-0.5 1.1,-0.9c0.3,-0.4 0.5,-0.8 0.7,-1.4c0.2,-0.5 0.3,-1 0.3,-1.6c0,-0.6 -0.1,-1.1 -0.3,-1.6s-0.5,-1 -0.8,-1.3c-0.3,-0.4 -0.7,-0.7 -1.1,-0.9c-0.4,-0.2 -0.9,-0.3 -1.4,-0.3l-6,0l-0.1,8.3z" fill="#45556c" id="path120"/>
     <path class="st5" d="m972.8,528.9c1.2,0 2.2,-0.2 3,-0.7c0.8,-0.5 1.4,-1.1 1.9,-1.8s0.8,-1.6 1,-2.6c0.2,-1 0.3,-2 0.3,-3l0,-11.5l3.6,0l0,11.5c0,1.5 -0.2,3 -0.5,4.4c-0.4,1.4 -0.9,2.6 -1.7,3.6c-0.8,1 -1.8,1.8 -3,2.4c-1.2,0.6 -2.7,0.9 -4.5,0.9c-1.8,0 -3.3,-0.3 -4.6,-0.9c-1.2,-0.6 -2.2,-1.5 -3,-2.5c-0.8,-1 -1.3,-2.3 -1.7,-3.6c-0.3,-1.4 -0.5,-2.8 -0.5,-4.2l0,-11.5l3.6,0l0,11.5c0,1 0.1,2 0.3,3s0.5,1.8 1,2.6s1.1,1.4 1.9,1.8c0.8,0.4 1.8,0.6 2.9,0.6z" fill="#45556c" id="path122"/>
     <path class="st5" d="m1029,509.4l3.1,0l8.9,22.6l-3.8,0l-2.4,-6.1l-8.7,0l-2.4,6.1l-3.8,0l9.1,-22.6zm5.2,13.8l-3.6,-9.7l-3.8,9.7l7.4,0zm-1.7,-16.7c-0.5,0 -0.9,-0.1 -1.3,-0.2s-0.7,-0.3 -1,-0.5c-0.3,-0.2 -0.6,-0.3 -0.9,-0.5s-0.6,-0.2 -1,-0.2s-0.6,0.1 -0.8,0.2c-0.2,0.1 -0.4,0.3 -0.5,0.5c-0.1,0.2 -0.2,0.4 -0.2,0.5l0,0.3l-2,0c0,-0.2 0.1,-0.5 0.2,-0.9s0.3,-0.8 0.6,-1.2c0.3,-0.4 0.6,-0.8 1,-1.1c0.4,-0.3 1,-0.5 1.6,-0.5c0.5,0 0.9,0.1 1.2,0.2c0.3,0.1 0.7,0.3 1,0.5s0.6,0.3 0.9,0.5c0.3,0.1 0.7,0.2 1,0.2s0.7,-0.1 0.9,-0.2c0.2,-0.1 0.4,-0.3 0.5,-0.5c0.1,-0.2 0.2,-0.4 0.2,-0.5l0,-0.3l2,0c0,0.1 -0.1,0.4 -0.2,0.8s-0.3,0.8 -0.6,1.2c-0.3,0.4 -0.6,0.8 -1.1,1.1c-0.2,0.4 -0.8,0.6 -1.5,0.6z" fill="#45556c" id="path124"/>
     <path class="st5" d="m1059.1,532.1c-1.6,0 -3.1,-0.3 -4.4,-1s-2.5,-1.5 -3.4,-2.6c-1,-1.1 -1.7,-2.3 -2.2,-3.7c-0.5,-1.4 -0.8,-2.8 -0.8,-4.2c0,-1.5 0.3,-2.9 0.8,-4.3c0.6,-1.4 1.3,-2.6 2.3,-3.7c1,-1.1 2.1,-1.9 3.4,-2.5c1.3,-0.6 2.8,-0.9 4.3,-0.9c1.6,0 3.1,0.3 4.4,1c1.3,0.7 2.5,1.5 3.4,2.6s1.7,2.3 2.2,3.7s0.8,2.8 0.8,4.2c0,1.5 -0.3,2.9 -0.8,4.3s-1.3,2.6 -2.3,3.6c-1,1 -2.1,1.9 -3.5,2.5c-1.2,0.7 -2.6,1 -4.2,1zm-7.1,-11.4c0,1.1 0.2,2.1 0.5,3.1s0.8,1.9 1.4,2.6c0.6,0.8 1.4,1.4 2.3,1.8c0.9,0.5 1.9,0.7 3,0.7s2.2,-0.2 3,-0.7c0.9,-0.5 1.6,-1.1 2.2,-1.9s1.1,-1.7 1.4,-2.6c0.3,-1 0.5,-2 0.5,-3c0,-1.1 -0.2,-2.1 -0.5,-3.1s-0.8,-1.9 -1.4,-2.6c-0.6,-0.8 -1.4,-1.4 -2.3,-1.8c-0.9,-0.5 -1.9,-0.7 -2.9,-0.7c-1.1,0 -2.2,0.2 -3.1,0.7s-1.6,1.1 -2.3,1.9s-1.1,1.6 -1.4,2.6c-0.3,1 -0.4,2 -0.4,3z" fill="#45556c" id="path126"/>
    </g>
    <g id="g132" transform="translate(-1982.62)">
     <path class="st5" d="m4400.1,1425.4c-5.9,-0.2 -11.3,-1.6 -16.3,-4.2c-5.4,-2.8 -10.1,-6.4 -14,-10.9c-3.9,-4.5 -6.9,-9.6 -9.1,-15.3c-2.2,-5.7 -3.3,-11.5 -3.3,-17.5c0,-5.6 1,-11.1 3,-16.7c2,-5.5 5,-10.5 8.8,-14.9c3.9,-4.4 8.6,-8 14.2,-10.7c5.6,-2.7 11.9,-4.1 19,-4.1c8.5,0 15.7,1.9 21.7,5.6c6,3.7 10.6,8.6 13.6,14.6l-11.5,7.7c-1.3,-2.8 -2.9,-5.1 -4.7,-7.1c-1.8,-1.9 -3.8,-3.4 -6,-4.6c-2.2,-1.1 -4.4,-1.9 -6.8,-2.4c-2.4,-0.5 -4.6,-0.7 -6.8,-0.7c-4.9,0 -9.2,1 -12.8,2.9c-3.7,2 -6.7,4.6 -9.2,7.8c-2.5,3.2 -4.4,6.8 -5.6,10.9c-1.3,4 -1.9,8 -1.9,12c0,4.5 0.7,8.8 2.2,12.9c1.5,4.1 3.6,7.7 6.2,10.9c2.7,3.1 5.8,5.6 9.5,7.5c3.7,1.9 7.7,2.8 12,2.8c2.3,0 4.6,-0.3 7,-0.8c2.4,-0.6 4.7,-1.5 6.9,-2.7c2.2,-1.3 4.3,-2.9 6.1,-4.8c1.9,-1.9 3.4,-4.2 4.6,-6.9l12.2,6.9c-1.5,3.5 -3.6,6.6 -6.3,9.2c-2.7,2.7 -5.8,4.9 -9.1,6.7c-3.4,1.8 -7,3.2 -10.8,4.2c-2.1,0.5 -4.3,0.9 -6.4,1.2c4.2,5.7 10.9,11.9 6.9,19.7c-5.6,11 -22.9,5.3 -28.3,2.9l3.6,-8.2s9.8,7.2 16.3,2.4c6.5,-4.4 -0.1,-9.8 -4.9,-16.3z" fill="#45556c" id="path130"/>
    </g>
    <g id="g136" transform="matrix(1 0 0 .62835 0 258.324)">
     <path class="st0" d="m330.8,840.5l220.2,0l0,628.4l-220.2,0l0,-628.4z" fill="#45556c" id="rect134"/>
    </g>
    <g id="g140" transform="matrix(1 0 0 .40133 0 273.834)">
     <path class="st1" d="m330.8,692.8l220.2,0l0,628.4l-220.2,0l0,-628.4z" fill="#45556c" id="rect138"/>
    </g>
    <g id="g144" transform="matrix(.64967 0 0 .59934 67.494 183.368)">
     <path class="st0" d="m1142,614.8l377.3,629.5l-377.3,0l0,-629.5z" fill="#45556c" id="path142"/>
    </g>
   </g>
  </g>
 </g>
</svg>